# xmcd CD database file
#
# Track frame offsets:
#	150
#	8557
#	30003
#	43757
#	60047
#	97849
#	134366
#	156458
#	185401
#	247373
#
# Disc length: 3761 seconds
#
# Revision: 0
# Processed by: cddbd v1.5.1PL0 Copyright (c) Steve Scherf et al.
# Submitted via: CDex 1.51
#
DISCID=730eaf0a
DTITLE=Grzech Piotrowski - SIN
DYEAR=2005
DGENRE=Jazz
TTITLE0=Moje Slonce
TTITLE1=Chik Chinka
TTITLE2=O Dwoch Takich Co Ukradli Ksiezyc
TTITLE3=Introwertyk
TTITLE4=Tylko My
TTITLE5=Neverland
TTITLE6=Hormon
TTITLE7=Cien
TTITLE8=Sin
TTITLE9=Pingwin (film by Wojtek Wawszczyk)
EXTD=YEAR: 2005
EXTT0=
EXTT1=
EXTT2=
EXTT3=
EXTT4=
EXTT5=
EXTT6=
EXTT7=
EXTT8=
EXTT9=
PLAYORDER=
